# xmcd
# 
# Track frame offsets:
#   150
#   14395
#   30940
#   49166
#   65960
#   79780
#   95134
#   112678
#   130345
#   144823
#   163296
#   180532
#   199995
#   217902
#   240108
# 
# Disc length: 3431 seconds
# 
# Revision: 2
# Processed by: cddbd v1.5.2PL0 Copyright (c) Steve Scherf et al.
# Submitted via: Synapstar 1.0 
# 
DISCID=c60d650f
DTITLE=Various Artist - CB60349
DYEAR=2006
DGENRE=Country
TTITLE0=Keith, Toby - Get Drunk And Be Somebody
TTITLE1=Big and Rich - Never Mind Me
TTITLE2=Clark, Terri - Damn Right
TTITLE3=Rascal Flatts - What Hurts The Most Today
TTITLE4=Nichols, Joe - Size Matters (Sometimes)
TTITLE5=McEntire, Reba - Love Needs A Holiday
TTITLE6=Bentley, Dierks - Settle For A Slowdown
TTITLE7=Allan, Gary - Life Ain't Always Beautiful
TTITLE8=McBride, Martina and Dolly Parton - I Still Miss Someone
TTITLE9=Vasser, Phil - Last Day Of My Life
TTITLE10=Hill, Faith - Lucky One, The
TTITLE11=Little Big Town - Bring It On Home
TTITLE12=Church, Eric - How 'bout You
TTITLE13=Yearwood, Trisha and Garth Brooks - Love Will Always Win
TTITLE14=Atkins, Rodney - If You're Going Through Hell (Before The Devil Even Knows)
EXTD=MediaType: Karaoke CD+G Producer: Chartbuster
EXTT0=
EXTT1=
EXTT2=
EXTT3=
EXTT4=
EXTT5=
EXTT6=
EXTT7=
EXTT8=
EXTT9=
EXTT10=
EXTT11=
EXTT12=
EXTT13=
EXTT14=
PLAYORDER=
